<svg id="Layer_1" data-name="Layer 1" xmlns="http://www.w3.org/2000/svg" viewBox="0 0 500 500"><defs><style>.cls-1{fill:#444;}.cls-2{fill:#d82f23;}.cls-3{fill:#ddd;}.cls-4{fill:#b7b7b7;}.cls-5{fill:#fff;}.cls-6{fill:none;stroke:#000;stroke-linecap:round;stroke-linejoin:round;stroke-width:15px;}</style></defs><title>medical-kit</title><path class="cls-1" d="M333.39,36.44H166.61a32.45,32.45,0,0,0-32.45,32.45v52.86H169.6V80.53A9.43,9.43,0,0,1,179,71.1H321a9.43,9.43,0,0,1,9.43,9.43v41.22h35.44V68.89A32.45,32.45,0,0,0,333.39,36.44Z"/><path class="cls-2" d="M67,92.25H96.56a10,10,0,0,1,10,10v19.47a0,0,0,0,1,0,0H56.94a0,0,0,0,1,0,0V102.28A10,10,0,0,1,67,92.25Z"/><path class="cls-2" d="M393.41,92.25h49.65a0,0,0,0,1,0,0v19.47a10,10,0,0,1-10,10H403.44a10,10,0,0,1-10-10V92.25a0,0,0,0,1,0,0Z" transform="translate(836.47 214) rotate(-180)"/><rect class="cls-3" x="7.86" y="121.75" width="484.27" height="341.82" rx="33.94" ry="33.94"/><path class="cls-4" d="M458.2,121.75h-36a33.94,33.94,0,0,1,33.94,33.94V429.63a33.94,33.94,0,0,1-33.94,33.93h36a33.94,33.94,0,0,0,33.94-33.93V155.69A33.94,33.94,0,0,0,458.2,121.75Z"/><circle class="cls-5" cx="250" cy="295.05" r="115.84"/><path class="cls-2" d="M307.73,270.41H274.64V237.33a7.77,7.77,0,0,0-7.77-7.78H233.13a7.77,7.77,0,0,0-7.77,7.78v33.08H192.27a7.77,7.77,0,0,0-7.77,7.77v33.74a7.77,7.77,0,0,0,7.77,7.78h33.09v33.08a7.77,7.77,0,0,0,7.77,7.77h33.74a7.77,7.77,0,0,0,7.77-7.77V319.7h33.09a7.77,7.77,0,0,0,7.77-7.78V278.18A7.77,7.77,0,0,0,307.73,270.41Z"/><rect class="cls-6" x="7.86" y="121.75" width="484.27" height="341.82" rx="33.94" ry="33.94"/><path class="cls-6" d="M333.39,36.44H166.61a32.45,32.45,0,0,0-32.45,32.45v52.86H169.6V80.53A9.43,9.43,0,0,1,179,71.1H321a9.43,9.43,0,0,1,9.43,9.43v41.22h35.44V68.89A32.45,32.45,0,0,0,333.39,36.44Z"/><circle class="cls-6" cx="250" cy="295.05" r="115.84"/><path class="cls-6" d="M67,92.25H96.56a10,10,0,0,1,10,10v19.47a0,0,0,0,1,0,0H56.94a0,0,0,0,1,0,0V102.28A10,10,0,0,1,67,92.25Z"/><path class="cls-6" d="M393.41,92.25h49.65a0,0,0,0,1,0,0v19.47a10,10,0,0,1-10,10H403.44a10,10,0,0,1-10-10V92.25a0,0,0,0,1,0,0Z" transform="translate(836.47 214) rotate(-180)"/><path class="cls-6" d="M307.73,270.41H274.64V237.33a7.77,7.77,0,0,0-7.77-7.78H233.13a7.77,7.77,0,0,0-7.77,7.78v33.08H192.27a7.77,7.77,0,0,0-7.77,7.77v33.74a7.77,7.77,0,0,0,7.77,7.78h33.09v33.08a7.77,7.77,0,0,0,7.77,7.77h33.74a7.77,7.77,0,0,0,7.77-7.77V319.7h33.09a7.77,7.77,0,0,0,7.77-7.78V278.18A7.77,7.77,0,0,0,307.73,270.41Z"/></svg>